<svg xmlns="http://www.w3.org/2000/svg" width="1455" height="1192" version="1.2">
    <path d="M1213.8 990.3h-300L764 1171.6c-22.7 27.4-64.9 26.7-86.7-1.5L538.7 990.3H241.8C108.6 990.3.6 882.3.6 749.1V241.8C.6 108.5 108.6.5 241.8.5h972c133.2 0 241.2 108 241.2 241.3v507.3c0 133.2-108 241.2-241.2 241.2z"
          style="fill:#fc636b"/>
    <path d="M1004.7 578 773.8 782.7c-19.2 16.9-48 16.9-67.2 0L475.7 578C244.3 373.5 532.5 72.9 740.2 313.5c180.5-255.6 474.7 62 264.5 264.5z"
          style="fill:#fff"/>
</svg>